<svg data-name="Layer 1" viewBox="0 0 512 512"><path d="m155.24 367.79-23.23 8.3c-19.94 5.73-37.65 4.14-48.62.4-10.96-3.74-10.03-8.51 4.31-14.63l22.13-8.73-33.44-14.07-36.8-8.95C17.45 339.16 0 349.66 0 363.57c0 19.5 37.96 33.81 77.9 40.29 37.25 6.04 81.13 3.98 113.26-3.65l40.42-9.41-30.98-12.98-45.37-10.02Zm119.63 85.9 69.21-24.64-32.56-13.92-37.28-9.19-71.62 25.76 43.14 10.46 29.11 11.54Z" style="fill:#f3c300;fill-rule:evenodd"/><path d="M472.78 382.55c19.35-7.22 42.94-20.46 38.73-38.11-3.6-15.09-48.18-38.26-105.53-41.33-29.44-1.57-59.42.41-96.11 10.37-11.11 3.02-34.85 11.09-34.85 11.09l32.54 11.66 44 11.44 34.13-12.01c9.79-3.45 21.72-4.19 34.49-3.17 12.77 1.01 25.81 9.7 8.81 17.07l-29.72 11.41 35.01 12.74 38.5 8.85ZM199.69 273.7l-44.86 14.45 29.74 14.91 42.46 8.1 45.77-16.08-73.11-21.38Z" style="fill-rule:evenodd;fill:#2e6db4"/><path d="m344.08 429.05 128.69-46.49-73.51-21.59-124.34 45.14 69.16 22.95Zm-112.5-38.26-76.35-23 119.64-43.27 76.67 23.15-119.96 43.12Zm-121.74-37.66 117.2-41.96-72.2-23.01L39.6 330.11l70.25 23.02Z" style="fill:#00ab9f;fill-rule:evenodd"/><path d="m274.87 453.69-83.71-25.49V58.31l67.82 17.19c86.44 25.79 142.05 44.03 142.05 133.41 0 69.76-37.67 95.45-93.21 70.83V149.41c0-29.41-32.62-32.21-32.62-9.88l-.34 314.16Z" style="fill:#df0024;fill-rule:evenodd"/></svg>