<svg data-name="Layer 1" viewBox="0 0 512 512"><path d="M8 8h496v496H8z"/><path d="M496 16v480H16V16h480m16-16H0v512h512V0Z" style="fill:#777"/><path d="m177.28 343.33-18.15 6.49c-15.58 4.47-29.42 3.23-37.98.31-8.57-2.92-7.84-6.65 3.37-11.43l17.29-6.82-26.13-10.99-28.75-6.99C69.63 320.97 56 329.17 56 340.04c0 15.24 29.65 26.41 60.86 31.48 29.1 4.72 63.38 3.11 88.48-2.85l31.58-7.35-24.2-10.14-35.44-7.83Zm93.47 67.12 54.07-19.25-25.44-10.88-29.13-7.18-55.95 20.12 33.7 8.17 22.74 9.02Z" style="fill:#f3c300;fill-rule:evenodd"/><path d="M425.36 354.87c15.12-5.64 33.55-15.99 30.26-29.78-2.81-11.79-37.64-29.89-82.45-32.29-23-1.23-46.42.32-75.08 8.1-8.68 2.36-27.23 8.66-27.23 8.66l25.42 9.11 34.37 8.94 26.67-9.38c7.65-2.69 16.97-3.27 26.95-2.48s20.16 7.58 6.88 13.34L367.93 338l27.35 9.95 30.08 6.92Zm-213.35-85.04-35.05 11.29 23.24 11.65 33.17 6.33 35.76-12.56-57.12-16.71Z" style="fill-rule:evenodd;fill:#2e6db4"/><path d="m324.82 391.19 100.54-36.32L367.93 338l-97.14 35.26 54.03 17.93Zm-87.89-29.89-59.65-17.97 93.47-33.81 59.9 18.08-93.72 33.69Zm-95.12-29.42 91.56-32.78-56.41-17.98-90.03 32.77 54.88 17.98Z" style="fill:#00ab9f;fill-rule:evenodd"/><path d="m270.75 410.45-65.4-19.92V101.55l52.99 13.43c67.53 20.15 110.98 34.4 110.98 104.22 0 54.5-29.43 74.57-72.82 55.34V172.72c0-22.97-25.48-25.16-25.48-7.72l-.26 245.44Z" style="fill:#df0024;fill-rule:evenodd"/></svg>